PathFileType	4	(X/Y/Z)	Patient4_TMGait_0pt4_02_left_19.trc.trc
DataRate	CameraRate	NumFrames	NumMarkers	Units	OrigDataRate	OrigDataStartFrame	OrigNumFrames
76.086956521739	76.086956521739	6	33	mm	76.086956521739	89	       141
Frame#	Time	Sacral			L.Shoulder			Chest			R.Shoulder			Neck			R.ASIS			L.ASIS			R.Thigh.Superior			R.Thigh.Lateral			R.Thigh.Inferior			R.Patella			L.Thigh.Superior			L.Thigh.Lateral			L.Thigh.Inferior			L.Patella			L.Shank.Superior			L.Shank.Lateral			L.Shank.Inferior			R.Shank.Superior			R.Shank.Lateral			R.Shank.Inferior			R.Heel			R.Midfoot.Superior			R.Midfoot.Lateral			R.Toe			L.Heel			L.Midfoot.Lateral			L.Midfoot.Superior			L.Toe			L.Elbow			L.Wrist			R.Elbow			R.Wrist			
		X1	Y1	Z1	X2	Y2	Z2	X3	Y3	Z3	X4	Y4	Z4	X5	Y5	Z5	X6	Y6	Z6	X7	Y7	Z7	X8	Y8	Z8	X9	Y9	Z9	X10	Y10	Z10	X11	Y11	Z11	X12	Y12	Z12	X13	Y13	Z13	X14	Y14	Z14	X15	Y15	Z15	X16	Y16	Z16	X17	Y17	Z17	X18	Y18	Z18	X19	Y19	Z19	X20	Y20	Z20	X21	Y21	Z21	X22	Y22	Z22	X23	Y23	Z23	X24	Y24	Z24	X25	Y25	Z25	X26	Y26	Z26	X27	Y27	Z27	X28	Y28	Z28	X29	Y29	Z29	X30	Y30	Z30	X31	Y31	Z31	X32	Y32	Z32	X33	Y33	Z33	

89	26.636571428571	889.440617431058	994.622434920816	517.743161635063	1063.632109244083	1428.347007652392	337.700583011074	1161.075357999622	1364.515803943898	503.920451331442	1066.859570827892	1434.901723225065	673.397870272495	1036.674724201375	1490.630602089380	494.832412734210	1118.950590866504	944.520907137475	644.002319630299	1109.766252422062	956.605233427258	368.450725507316	1176.518794253870	747.753413046180	615.662725923526	1101.632142069180	632.741360197315	672.519629778112	1184.326746584878	587.172894200432	593.057496477984	1190.142124394577	499.239906914105	597.243538998917	1166.984872630485	744.476599464929	397.752726144189	1094.994959022190	624.208119437503	323.888295232633	1184.917435644346	546.634189347638	385.032375890677	1182.957635545519	461.328384134916	381.990566363868	1118.053670404214	398.334518970259	372.154643144915	982.979338219199	349.521708899922	313.845876420034	970.539292137123	221.872592681233	371.233174589759	1165.293246770674	408.527962682776	604.078019428628	1097.831612285778	302.094695161456	666.527484155374	1142.937502865755	209.379318430973	601.332516614002	1014.257733728539	42.346520466838	571.277674570208	1184.951719633460	98.859028149009	603.873346584620	1099.522384302871	36.939111454852	644.198111832193	1306.768243229862	48.974336587087	626.746458011627	781.239838706273	142.166987768164	398.664121043202	847.022813174820	107.643500083699	319.533508427200	948.787339921198	126.752150221737	347.477708397852	1040.371510024294	33.617364255436	317.551561947794	1098.500565246690	1080.233351339907	215.935504215176	1303.068153917231	913.178028865492	208.668452534755	1007.770139482561	1093.475042644956	795.365319534773	1083.171395393506	843.145072047412	807.251837186682	
90	26.649714285714	889.276708103998	994.672293188267	521.160727735799	1061.332497714858	1428.489272895076	339.929967491955	1160.475844682373	1364.862953257196	505.231296728442	1067.910445698289	1435.121790865505	675.660714766706	1036.088037024040	1490.873286413567	497.224733873637	1119.510715015738	944.782842971283	645.874007540997	1109.157356286801	956.991296519680	370.255257025453	1175.613590565988	747.191773516071	617.377674536421	1100.257883881445	632.501763043312	674.238880669017	1182.295638428022	586.610975315226	594.412061121064	1187.494117853097	498.559504720838	598.352964957367	1170.652309406296	747.841893597119	399.487808679549	1102.739628317251	626.146637879771	324.758577293659	1194.902457898509	550.576712671444	385.621127297691	1194.488927602535	464.458175397495	382.112387230760	1128.542708461090	401.072058059218	372.479855481326	991.863887927971	355.391876916874	314.995227327951	977.251120820739	227.595513231518	371.909660118080	1162.177692847165	407.913892408097	605.013641946392	1094.258190779136	301.657753506742	667.220179695861	1138.554845597771	208.917887872403	601.648916550024	1008.873211561574	42.324380391582	571.382163326595	1179.638207391018	98.730690638270	604.020925851866	1094.142695886520	36.878879590488	644.330094754594	1301.429368846669	48.755094816570	626.896629548429	785.739934165266	153.424631082431	399.932983147438	850.289204570379	116.701336036314	320.518383216510	953.206724924072	131.821041415975	348.241214351371	1041.115681568609	33.855253236469	317.863668911393	1091.892656210367	1078.876593059757	220.300291377817	1289.035835844271	903.204756597346	210.246898609195	1017.168658134777	1092.606779964355	799.684814172207	1102.504888888019	845.427798842845	810.402430779642	
91	26.662857142857	889.050042849348	994.822566460566	524.424321923696	1058.999140315603	1428.695352234717	342.007009031780	1159.838421067992	1365.277301881023	506.367231068955	1068.967107894569	1435.435933267665	677.755490013754	1035.473330911456	1491.193306936935	499.442472722558	1119.959386446366	945.049846891899	647.613315730825	1108.448177160533	957.491680011375	371.962973781830	1174.493109171049	746.645316814029	618.765416737221	1098.767234978970	632.300052992779	675.798025656960	1180.038506311345	586.059126004189	595.555291800796	1184.598760088586	497.913723779106	599.335122277742	1173.908783300464	751.382844092864	400.938693936758	1109.686748389346	628.548899085760	325.321343549849	1203.956673347848	554.940689461619	385.800481508984	1205.203652229085	468.164279869867	381.843361384643	1138.609382881074	404.265430006726	372.438025924233	1000.667327060313	360.796718073717	315.897594675229	984.775270298927	232.783611475454	372.381716108788	1158.868360641919	407.344565112594	605.849544445565	1090.515726962024	301.257440688528	667.850152194768	1134.060883423511	208.491593459940	601.917733788749	1003.456812384420	42.306577326715	571.484124604333	1174.301345483820	98.584255634917	604.138856455011	1088.731937211057	36.825204490176	644.450564261010	1296.063753768641	48.502863217188	627.028102773357	791.861660716410	162.519727207124	401.199672683499	855.371882694319	124.273493021784	321.435513799821	959.143462480862	136.427292629312	348.832850206067	1044.287548264784	34.519465177554	317.874707614126	1084.983074598344	1077.676931222684	224.453257508848	1273.884544631996	893.422289119995	211.655461130797	1026.859111292768	1092.055095166878	803.843605160622	1122.144709541433	848.502955572051	813.283906700258	
92	26.676000000000	888.767511084612	995.094198413827	527.526047398145	1056.692292658484	1428.982924918380	343.945568130852	1159.189640571366	1365.764682299385	507.356352981076	1070.030820624567	1435.863851135653	679.688630712956	1034.857363498449	1491.602768314374	501.494043433606	1120.308774631131	945.330620599811	649.222048404644	1107.574559596980	958.098742279741	373.597940077698	1173.190843836362	746.139378480669	619.870201975855	1097.141874407118	632.154942659379	677.199227613329	1177.581569386864	585.530245972562	596.533899302145	1181.476337748061	497.322379308982	600.220709363304	1176.710804271965	755.063708610986	402.122164494541	1115.743597158112	631.351811216679	325.610295214230	1212.007761761693	559.639264221151	385.564834806634	1215.006150432344	472.369560411528	381.155180913546	1148.189980012674	407.830026997757	372.003287026462	1009.351498030248	365.503346724245	316.511848684682	993.218793221478	237.176103118528	372.573005712349	1155.382218983700	406.840896756467	606.608738235664	1086.616555025486	300.917937026203	668.443168802099	1129.481837614543	208.119091296445	602.165463636086	998.045295425619	42.299479002609	571.591273373065	1168.975693232246	98.438432827713	604.242388531186	1083.323508654422	36.782476912999	644.566168031947	1290.703743584964	48.231761503256	627.145677586346	799.759766341115	168.925374396388	402.384184138458	862.467432690546	129.907293218476	322.191184006583	966.807057346556	140.288139338867	349.129109251296	1050.257360394513	35.596581854853	317.444717132066	1077.808786801139	1076.673339810702	228.385483954295	1257.651147627911	883.958858830690	212.949400137942	1036.779673930872	1091.845971064165	807.783941887508	1142.003730099789	852.414027027157	815.835870015543	
93	26.689142857143	888.434061555629	995.499951955033	530.462357260456	1054.456597846771	1429.363978125400	345.764680094996	1158.550304884192	1366.324904660487	508.227924508398	1071.103857772265	1436.413070158537	681.472336025449	1034.262225058972	1492.105482928473	503.395965470230	1120.574247500802	945.632262145468	650.692425506430	1106.490207064803	958.801684804757	375.164282601281	1171.734259791456	745.691025948629	620.744504325150	1095.353351074164	632.080803673107	678.449814826332	1174.938894464552	585.032588574435	597.396524540775	1178.136455147651	496.798696396975	601.043956133271	1179.035381553534	758.841961934942	403.050775746783	1120.872598333868	634.465278854735	325.664404248677	1219.030372935931	564.568797315650	384.931101404294	1223.843017932598	476.981201031013	380.051627552646	1157.256153461926	411.665981005082	371.171093935096	1017.916716609291	369.310320557569	316.808642136446	1002.683529951021	240.564882963094	372.415491434673	1151.723170458026	406.418123452313	607.317275880989	1082.558232043646	300.656368641942	669.019780668578	1124.831956990873	207.813795319086	602.419525378832	992.663427294340	42.308055470490	571.708486278108	1163.684382066168	98.307329143630	604.345941369661	1077.939257632213	36.752151079300	644.681178323319	1285.370383358051	47.950923378734	627.252741217260	809.564583147371	172.289588912487	403.403082982548	871.719503424622	133.290630390014	322.686998267857	976.362464565392	143.172051683002	349.015144127985	1059.266486203656	37.031191019127	316.434020322040	1070.411693365507	1075.900985625186	232.087173830018	1240.407032293981	874.943951849368	214.184626402823	1046.853413676632	1091.991358238892	811.460135295555	1161.994174569615	857.194267686614	817.997539787497	
94	26.702285714286	888.053884845887	996.040842446234	533.232710557936	1052.319772102755	1429.842859696015	347.485130288011	1157.935079696376	1366.950201854914	509.008252948218	1072.189492317901	1437.075515391418	683.121952863638	1033.704461969734	1492.695561436331	505.169656514036	1120.772258328786	945.959280096212	652.009784990436	1105.184592426896	959.591661557562	376.643301192716	1170.141495561501	745.309556981093	621.438141646163	1093.372641745162	632.087212058600	679.562193193169	1172.115123728568	584.570779109569	598.187141662648	1174.583421323810	496.349602662785	601.839799850750	1180.877320941493	762.664391106740	403.731485605947	1125.081930098874	637.776800999005	325.524791628189	1225.033437952743	569.611196421982	383.940498865439	1231.693397782770	481.892131542923	378.569224339244	1165.800844401619	415.666116419053	369.958865151886	1026.386711946257	372.068307700929	316.774259169362	1013.242847106939	242.817030790243	371.853995562986	1147.886469107260	406.084803342893	608.001436762561	1078.329469902489	300.481966298384	669.594453462705	1120.116173686226	207.583233365868	602.704929212618	987.323736390133	42.335468598497	571.837855606184	1158.439160328083	98.200516168864	604.462040758377	1072.590128452347	36.733452783838	644.797721479560	1280.073646588905	47.666261759126	627.351415238711	821.366274684907	172.464133308386	404.172421243237	883.202137053153	134.280149301590	322.826702504831	987.903909035041	144.927803074235	348.393938346577	1071.397055140074	38.744455104122	314.717710955004	1062.836707417748	1075.386954815679	235.546926513373	1222.261926087946	866.503136917794	215.414621169380	1056.994219202292	1092.485715221342	814.840931580502	1182.025651469485	862.864389415575	819.710246897300	
